<svg id="Layer_1" xmlns="http://www.w3.org/2000/svg" viewBox="0 0 161 161"><style>.st0{fill:#fff}</style><g id="siaJTQ.tif"><path d="M1 0h160v160H1V0zm101.8 108.7C96.2 99.9 89.9 91.4 83 82.2c5.4-3.4 10-6.2 14.6-9.1.6-.4 1-1 1.5-1.5-.5-.5-1.1-1.3-1.6-1.4-4.2-.1-8.3-.2-12.5-.1-.6 0-1.2.7-1.9 1.1.6.6 1.1 1.3 1.7 1.8.6.4 1.4.6 3.2 1.4-5 4.5-9.3 8.5-14.8 13.5V51.8c-6.6.8-12.8.5-19.1 4.6 7.3-1 5.9 3.5 5.9 6.9v36c0 3.2.9 7-4.4 7.1-.3 0-.5 1.4-.7 2.2h23.8c-8.1-5-4.3-11.2-5.3-16.7.4-.1.8-.3 1.2-.4 2.8 4.4 5.6 8.9 8.1 12.9-1.5.8-2.7 1.5-4 2.2.6.7 1.2 1.4 1.7 2.1h22.4z"/><path class="st0" d="M1 0v160h160c-1.3.3-2.7 1-4 1H0v-41.7V4c0-1.3.7-2.7 1-4z"/><path class="st0" d="M102.8 108.7H80.4c-.6-.7-1.2-1.4-1.7-2.1 1.3-.7 2.5-1.4 4-2.2-2.5-4.1-5.3-8.5-8.1-12.9-.4.1-.8.3-1.2.4 1 5.4-2.8 11.7 5.3 16.7H54.9c.3-.8.5-2.2.7-2.2 5.3-.1 4.4-3.9 4.4-7.1v-36c0-3.4 1.4-7.9-5.9-6.9 6.2-4.1 12.4-3.9 19.1-4.6v36.1c5.5-5 9.8-9 14.8-13.5-1.8-.8-2.6-1-3.2-1.4-.7-.5-1.2-1.2-1.7-1.8.6-.4 1.2-1.1 1.9-1.1 4.2-.1 8.3 0 12.5.1.6 0 1.1.9 1.6 1.4-.5.5-.9 1.1-1.5 1.5C93 76 88.4 78.8 83 82.2c6.9 9.2 13.2 17.7 19.8 26.5z"/></g></svg>