<svg xmlns="http://www.w3.org/2000/svg" viewBox="0 0 719.8 178.2"><path d="M237.9 14.4c3.3-1.2 6.5-2.5 9.8-3.7 4.2-1.6 8.5-3.1 12.8-4.7.5-.2.9-.4 1.4-.5 5.1-1.7 10.2-3.4 15.2-5.2 2-.7 3.8.8 3.8 3.3 0 1.9-.3 3.8-.3 5.7v40.2c0 2.2-.4 4.3-.4 6.5 0 1.1.5 3.1 1 3.2 1.2.2 3 0 3.8-.8 8.2-8.4 18.4-10.1 29.1-7.7 6.1 1.4 11.6 4.9 15.8 10.1 2.7 3.4 4.7 7 6.3 11.1 4.1 10.8 5.6 21.6 3.1 33.1-.9 4.3-2.1 8.6-4.1 12.3-2 3.6-4.6 7.1-7.6 9.9-3.3 3.1-7.1 6-11.2 7.9-4.4 2-9.4 2.7-14.1 3.8-7.6 1.7-14.7-1-21.7-3.2-3.8-1.2-7.2-4-10.6-6.3-1.2-.8-1.9-.9-2.9.1-2.9 2.8-5.8 5.6-8.8 8.3-.6.6-1.9 1.2-2.4.9-.7-.3-1.1-1.6-1.2-2.4-.1-1.8.5-3.6.3-5.4-.2-2.3-1.1-2.7-3-1.5-2.9 1.8-5.7 3.8-8.6 5.6-.3.2-.7.6-1 .7-5.8 1.2-11.4 4.2-17.5 2.9-4.8-1-9.4-2.7-13.2-6-.6-.6-.9-1.6-1.3-2.4-1.7-3.2-4.3-3.3-6.8-.7-3.1 3.2-6.7 5.7-11 7.3-4.9 1.9-9.9 2.8-14.9 2-6.4-1-11.7-4-15.6-9.6-4.5-6.5-2.8-13.4-1.9-20.2.3-2.4 2.6-4.8 4.5-6.7 3.7-3.7 8.2-5.9 13.3-7.4 4.2-1.2 8.2-3 12.3-4.6.6-.2 1.2-.5 1.9-.7 3.6-1.3 7.2-2.4 10.7-3.8 3.3-1.2 4.8-3.6 4.8-7-.1-5 .2-10-.4-15-.7-5.9-6.2-12.5-12.6-10.9-2.6.6-5 2.2-7.1 3.8-.6.5 0 2.7.2 4 .6 3.3 1.5 6.6 1.8 10 .3 3.8-2.2 6.6-5.4 7.8-3.2 1.2-6.9 1.5-10.4 1.7-5.1.2-8.1-3.2-10.1-7.3-1.3-2.7-1-5.6.6-8.6 3-5.4 7.9-8.3 13.1-10.5 6.5-2.8 13.3-4.5 20.6-4 3.3.2 6.7.4 10 .3 5-.3 9.7 1.4 13.8 3.6 4.9 2.6 8.2 6.7 9.8 12.7 2.9 11.1 1.3 22 .6 33-.4 6.4-.7 12.8-.9 19.2-.1 3.8 1.8 7.3 4.9 9 3.2 1.7 7.1 1.3 10.2-1.6 2.4-2.3 5.1-4.4 7.2-7 1.2-1.5 2.1-3.7 2.1-5.6.1-27.1 0-54.2.1-81.2 0-4.2-1-8.1-3.9-10.7-2.4-2.2-6-3.2-9.2-4.6-1.3-.6-2.8-.7-4.2-1.1-.5-.5-.6-1-.6-1.4zm42.5 79.7c0 6.7.1 13.5 0 20.2-.1 5.2.4 10.1 3.7 14.6 2.9 4 6.4 5.6 11.1 5.7 4.9.2 8.2-2.4 10.7-6.1 3.3-5.1 5.1-11 5.7-16.8 1.2-12.4 2.3-24.8-1.4-37.1-1.4-4.7-3.1-8.9-6.8-12-2.7-2.3-5.7-4.3-9.7-3.8-3.8.5-6.8 2.1-9.8 4.6-3.2 2.6-3.5 5.6-3.5 9v21.7zM207 105.6h.4c0-4.5.1-9-.1-13.5 0-1.1-.8-2.9-1.6-3.2-1.1-.4-2.6.3-3.9.8-.9.3-1.6 1.2-2.5 1.5-7.4 2.5-14.3 10.7-13.9 19.2.1 2.5 0 5 .1 7.5.3 6.7 4.4 10.4 11 10.4 3.4 0 5.4-2 7.4-4 2.2-2.2 3.5-4.8 3.2-8.2-.4-3.5-.1-7-.1-10.5zM48.5 135.4c-1.2.2-2.3.6-3.5.6-13.2.1-26.3.1-39.5 0-.9 0-1.9-.4-3.5-.7 1.2-1 1.8-1.7 2.5-2 1.4-.7 2.9-1.4 4.4-1.8 4.1-1.1 5.6-4.3 5.9-8 .3-3.2.1-6.5.1-9.7-.1-12.2-.2-24.5-.2-36.7 0-1.7.1-3.5.2-5.2.5-9-4.8-15.6-13.8-16.7-.2 0-.5-.1-.7-.2-.7-2 0-2.7 2.1-2.7l33.5.3c2.4 0 3.3 1.1 3.2 3.4-.1.8-.3 1.7-.2 2.5.3 1.5.8 2.9 1.2 4.3 1.6-.6 3.8-.8 4.6-1.9 3.4-4.7 8.2-7.4 13.1-9.9.7-.4 1.6-.6 2.4-.6 4.9-.1 9.9-.6 14.7 0 4.6.6 8.7 3.1 11.6 6.9C87.9 59 89 61 90.1 63c.8 1.3 1.6 1.6 2.8.5 2.2-2 4.3-4 6.7-5.8 2.6-1.9 5.3-3.5 8-5.2 6-3.8 12.7-2.8 19.2-2.4 5.7.3 9.9 3.9 13.1 8.2 3.9 5.3 4.6 11.6 4.7 18 0 14.6-.1 29.2 0 43.7 0 2.5 1 5 1.6 7.4.7 2.3 2.5 3.3 4.6 4.1 2 .7 3.7 1.9 5.6 2.8-.1.3-.1.7-.2 1-1 .2-2.1.6-3.1.6-13.2.1-26.3.1-39.5.1-.9 0-1.9-.4-2.8-.5-.1-.2-.2-.5-.3-.7.9-.7 1.8-1.6 2.8-2 5-1.9 6.7-5.4 6.6-10.7-.2-14 .1-28-.2-42-.1-4.7-1.1-9.6-2.7-14.1-1.1-3.3-4.2-5.7-8-5.9-3.8-.1-7.7-.1-10.6 3.2-1.5 1.7-3.4 3.1-4.8 4.9-.8 1.1-1.3 2.8-1.3 4.2-.1 17.6 0 35.2 0 52.7 0 3 1.5 5 4.3 6.1 1.2.5 2.4 1.1 3.5 1.9.6.4.8 1.3 1.1 2-.7.3-1.4.8-2.2.8H79.8c-6.5 0-13 .1-19.5 0-.9 0-1.8-.7-2.7-1.1.8-.6 1.4-1.5 2.3-1.8 5-1.5 6.6-3.5 6.6-8.6 0-16.7-.2-33.5-.1-50.2 0-4.3-1.5-7.8-3.9-11-1-1.3-2.7-2.3-4.3-2.7-5.4-1.2-10.2.2-14 4.3-1.8 1.9-3.3 4.1-4.8 6.3-.3.9-.4 1.9-.4 2.8 0 15.2-.1 30.5 0 45.7 0 3-.5 6.3 1.9 8.8 1 1 2.1 2 3.2 2.9 1.4 1.1 3 2.2 4.4 3.3.1.2.1.5 0 .8zM439.1 14.4c3.3-1.2 6.5-2.5 9.8-3.7 4-1.5 8-3 12.1-4.5 1.2-.4 2.4-.7 3.6-1.1l5.4-1.8c3-1.1 6-2.3 9.1-3.2 1.7-.5 2.9.5 3 2.4 0 1.8-.1 3.7-.1 5.5v47.7c0 1.1-.5 2.1-.4 3.2.1 1.1.4 2.8 1.1 3 1 .3 2.8 0 3.5-.7 4-4.8 9.1-8.3 14.9-10.3 3.5-1.2 7.5-.9 11.4-1.1 4.6-.3 8.9.6 12.7 3.5 2.2 1.7 4.1 3.5 5.8 5.9 4 5.8 4.1 12.4 4.2 18.9.2 14.4 0 28.8.1 43.2 0 2.2.8 4.4 1.4 6.5.5 2 2.2 2.7 4 3.3 2.5.9 4.8 2.1 7.2 3.2 0 .3-.1.7-.1 1-1.2.2-2.4.6-3.6.6-13.4.1-26.8.1-40.2 0-.8 0-1.7-.4-2.5-.6l-.3-.9c1.3-.8 2.5-1.9 4-2.5 3.9-1.5 5.4-4.2 5.3-8.3-.1-15.5-.2-31 0-46.5.1-4.5-1.4-8.4-3.3-12.1-1.6-3.2-4.7-5.2-8.3-5.1-3.6.1-7.2.4-10.1 3.2-2.6 2.4-5.6 4.4-6.3 8.2-.3 1.5-.3 3-.3 4.5v44c0 1.5.1 3 .1 4.5.1 3.6 1.6 6.2 5.3 7.2 1.1.3 2.2.9 3.1 1.6.5.4 1 1.3.9 1.9-.1.4-1.1.9-1.8.9-1.7.1-3.5-.1-5.2-.1-12.1 0-24.2.1-36.2.1-1.2 0-2.4-.6-3.6-1 1.1-.7 2.1-1.6 3.2-2.1 1.7-.9 3.6-1.3 5.3-2.3 2.2-1.3 3.6-3.2 3.6-6.1-.1-31.5 0-63 0-94.5 0-5.6-2.9-9.7-8.2-11.7-2.9-1.1-5.9-2-8.9-3-.6-.2-.7-.5-.7-.8zM440.2 135.6c-1.3.1-2.5.4-3.8.4h-30.5c-3.3 0-3.9-.7-3.8-4 0-1.6.2-3.2-.1-4.7-.4-2.3-1.3-2.5-3.1-1-3.5 2.7-6.7 5.8-10.6 8-6.2 3.5-13.1 5.6-20.3 4-6.1-1.4-11.6-4.1-14.5-10.3-.8-1.8-1.7-3.5-2.3-5.4-4-12.8-1.7-26-2.3-39-.2-4.5-.1-9 .1-13.5.3-9-3.3-11-10.5-14.3-1-.4-1.9-.8-2.9-1.2 0-.3-.1-.5-.1-.8.9-.4 1.9-1.1 2.8-1.2 11.2-.1 22.5-.1 33.7-.1 1.9 0 2.4 1.1 2.4 2.8v9.5c0 15.9.1 31.8 0 47.7 0 4.2 1.3 8 3.3 11.3 1.4 2.3 3.7 4.2 7.1 4.4 6.9.5 11.2-3.1 15.1-8.2 1.8-2.3 2-4.6 2-7.2V68.6c0-5.2-2.1-9.1-7.1-11.1-1.8-.7-3.8-1.2-5.6-2-.7-.3-1.2-1.1-1.8-1.7.7-.5 1.3-1.4 2-1.5 1.6-.2 3.3.1 5 .1h27.2c4.6 0 4.9.5 4.8 5-.1 7.7-.1 15.3-.1 23v37c0 6.1 3.2 11.3 9.2 13.8 1.8.7 3.2 2.2 4.8 3.3.1.4 0 .8-.1 1.1zM589.2 50h8.5c6.8.1 13 2.3 17.9 6.9 2.4 2.2 4.5 5 5.2 8.8 1.7 8.7 1.2 17.4.8 26.1-.4 9.1-.8 18.1-1 27.2-.1 5.8 5.3 10.4 10 8.7.8-.3 1.9-.9 2.1-1.6 1.2-3.4 2.3-6.9 3.3-10.3.1-.4-.1-.9.1-1.2.4-.6.9-1 1.4-1.5.5.6 1.3 1.2 1.4 1.8.4 8.5-2.4 16-9.6 20.6-5.1 3.2-11.3 4.3-17.6 2.3-3.6-1.2-7.3-2.2-10.1-5-.6-.6-.9-1.4-1.4-2-1.1-1.2-2.3-2.4-3.6-3.2-.5-.3-1.8.1-2.4.5-2.4 1.8-4.5 4-7 5.7-6.5 4.6-14 6-21.6 4.6-5.2-1-9.8-3.7-13.4-8.4-3.4-4.4-3.4-9-3.4-13.9 0-1.4.2-2.8.3-4.2.7-6.8 4.9-11.2 10.6-13.9 5.6-2.7 11.7-4.5 17.6-6.6 2.8-1 5.7-1.7 8.4-2.9 3.3-1.5 6.6-3.2 9.6-5.3 1-.7 1.5-2.5 1.6-3.9.2-3.5-.2-7 0-10.5.3-4.2-1.2-7.9-2.9-11.5-2-4-8.9-6.2-12.8-4.1-1.4.7-2.7 1.6-4 2.5-2.1 1.4-1.2 3.3-.3 4.9 2.4 4.3 2.8 8.9 1.2 13.2-.7 2.1-3.3 4.1-5.5 4.9-3.2 1.1-6.8 1.3-10.2 1.3-6.3 0-11.3-7-9.8-12.7.7-2.7 2.3-5.6 4.4-7.5 4.1-3.6 8.8-6.5 14.4-7.5 3-.5 5.9-1.8 8.8-2.2 3-.4 6-.1 9-.1zm-3.2 78.2c3.4 1 5.7-2 7.8-4.3 1.5-1.7 3.2-3.7 3-6.6-.2-3.7 0-7.5 0-11.2.1-4.8.3-9.7.1-14.5-.1-2.8-2.4-3.8-4.8-2.4-2.7 1.5-5.5 3-8.1 4.7-5 3.2-8.3 7.6-8.8 13.6-.3 4-.2 8 .1 11.9.7 5.4 4.8 8.8 10.7 8.8z"/><path d="M719.6 55c-4.7-.3-8.1 2.2-10.8 5.5-1.4 1.6-2.5 3.5-3.3 5.5-1.5 3.6-2.7 7.4-4 11.1-.4 1-.8 2-1.1 3-.6 1.6-1.2 3.2-1.9 4.8-.5 1.4-1.1 2.7-1.7 4-.1.3-.4.5-.6.8-1.2 3.1-2.3 6.1-3.5 9.2-.8 2-1.6 3.9-2.3 5.9-1.4 3.9-2.6 7.8-4.1 11.6-1.4 3.8-3 7.5-4.6 11.2-.2.4-.5.7-.6 1.1-1.3 4-2.4 8-3.9 11.9-1.1 2.9-2.4 5.8-3.7 8.6-1.7 3.5-3.5 6.9-5.4 10.3-4.3 7.9-9.8 14.7-18.6 17.5-4.5 1.4-9.4 1.7-14.1-.8-2.6-1.4-4.9-3.1-6.7-5.4-.6-.8-1.2-1.9-1.3-2.9-.3-2.5-.3-5-.3-7.5-.1-6.9 10.3-12 15.3-10 1.8.7 3.7 1.4 5.4 2.4 3.5 2.3 3.1 5.9 2.9 9.4-.1 1.8-.9 4.1 1.3 4.8 2 .7 4-.3 5.4-2.1 2.4-3 5.3-5.7 7.4-8.8 1.9-2.7 3.1-5.9 4.6-8.9.4-.8.7-1.7 1.2-2.4 2.2-3 2.2-4.8 0-7.6-.4-.5-.8-1.1-1-1.7-1.3-3.2-2.3-6.5-3.7-9.6-1.4-3.1-3.1-6-4.5-9-1.3-2.8-2.5-5.7-3.8-8.6-1.8-4-3.7-8-5.5-12.1-1-2.3-2.1-4.6-3.1-7-1.4-3.4-2.6-6.8-4-10.1s-3.1-6.5-4.7-9.7c-.2-.4-.4-.7-.5-1.1-1.6-7.6-6.7-11.7-13.8-13.8-.3-.1-.6-.3-1.2-.7.7-.5 1.2-1.1 1.8-1.3.9-.3 2-.5 2.9-.5 9.9 0 19.8.2 29.7.2 3.7 0 7.3-.2 11-.3.8 0 1.7-.1 2.5.2.6.2 1 1 1.2 1.6.1.2-.8.9-1.4 1.1-.9.2-1.8.1-2.7.2-4.5.4-6.4 3-4.8 7.2 1.6 4.4 3.7 8.6 5.5 12.9 1.4 3.3 2.5 6.8 3.9 10.1 1.5 3.5 3.1 6.8 4.6 10.3.6 1.4.8 3.1 1.5 4.4.9 1.8 1.9 3.6 3.2 5.1 1.2 1.3 2.5.7 3-.9 1.3-3.9 2.5-7.8 3.8-11.7.3-.9.8-1.8 1.3-2.7.3-.5.7-.9.9-1.5 1.3-3.8 2.4-7.7 3.7-11.5.4-1.2 1.1-2.4 1.6-3.6.5-1.2.9-2.5 1.3-3.7.4-1.4.5-3 1-4.4 1.4-3.3.3-5.9-3-7.6-2.7-1.4-5.2-2.9-8.4-2.8-.5 0-1.4-.9-1.3-1.3.1-.6.8-1.1 1.3-1.5.3-.2.8-.1 1.2-.1 9 0 18 .1 27 0 1.9.4 3.2.6 2.5 3.3z"/></svg>