<svg xmlns="http://www.w3.org/2000/svg" viewBox="0 0 75.1 60.6"><path d="M15.7.1c-1.1 3.4-2.3 6.7-3.4 9.9-.1.4-.3.5-.7.5-1.5 0-1.5.1-2-1.4C9.1 7.4 8.5 5.8 7.9 4c-.5.6-.6 1.3-.8 1.9-.5 1.3-1 2.7-1.4 4-.1.5-.4.6-.8.6-1.4 0-1.4 0-1.8-1.3-1-3-2-6-3.1-9C.1.2.1.1.2.1 2.4 0 2.4 0 3.1 2.2 3.5 3.6 4 5 4.4 6.5c0 .1.1.2.2.4.7-2 1.4-4 1.9-5.9.2-.8.5-1 1.3-1S9 .3 9.2 1.1c.5 1.7 1.1 3.4 1.7 5.1.1.2 0 .4.3.5.6-1.9 1.2-3.8 1.8-5.8.2-.6.4-.9 1.1-.8h1.6zM52.4 6.8c.8 1.2 1.6 2.3 2.5 3.6h-2.4c-.4 0-.5-.2-.7-.5-.5-.8-1.1-1.6-1.6-2.4-.3-.4-1.5-.7-1.9-.4-.2.1-.1.4-.1.6v2.2c0 .4-.1.5-.5.6-1.8.1-1.8.1-1.8-1.6V1c0-.7.1-1 .8-1 1.5.1 3 0 4.4.1 1.8.1 3 1 3.3 2.5.4 1.7-.2 3.1-1.9 4.1.1 0 0 0-.1.1zm-2.7-1.7c.5 0 .9 0 1.4-.1.8-.1 1.2-.7 1.1-1.4 0-.7-.4-1.2-1.1-1.3-.4-.1-.9-.1-1.4-.1-1.5 0-1.5 0-1.5 1.5.1 1.4.1 1.4 1.5 1.4zM22.7 35.6c-3.1 0-5.5-2.3-5.5-5.4 0-3 2.4-5.3 5.5-5.3 3.2 0 5.5 2.2 5.5 5.3 0 3.1-2.4 5.4-5.5 5.4zm3-5.3c0-1.9-1.3-3.3-3.1-3.2-1.7 0-3 1.4-3 3.1 0 1.9 1.3 3.3 3.1 3.3s3-1.3 3-3.2zM43.6 56.8v.6c0 1.8-.1 2-1.8 2.7-3 1.3-6.3.3-7.5-2.3-1.1-2.4-.5-5.1 1.5-6.7 1.9-1.5 5.3-1.5 7.1 0 .3.2.4.4.1.7l-.2.2c-.8 1-.8 1-2 .4-1.4-.7-3-.4-3.8.8-1 1.2-.9 3.1 0 4.3.9 1.1 2.6 1.4 4 .7.7-.3.4-.9.4-1.4 0-.5-.5-.2-.7-.3h-.3c-1.2 0-1.5-.5-1.2-1.7.1-.3.2-.3.4-.3h3.7c.4 0 .5.2.5.5-.2.6-.2 1.2-.2 1.8zM66.8 5.2V.7c0-.5.1-.6.6-.6h6.5c.6 0 .8.2.7.7v.4c.1.7-.1 1-.9 1-1.3-.1-2.6 0-3.9 0-.5 0-.7 0-.7.6 0 1.4 0 1.4 1.4 1.4h2.9c.5 0 .6.1.6.6 0 1.4 0 1.4-1.4 1.4h-2.7c-.6 0-.8.1-.8.7 0 1.4 0 1.4 1.4 1.4h3.6c.5 0 .6.1.6.6 0 1.4 0 1.4-1.4 1.4h-5.6c-.7 0-1-.1-.9-.9.1-1.3 0-2.7 0-4.2zM66.8 30.2v-4.4c0-.5.2-.7.7-.7h6.4c.6 0 .8.2.8.8v.7c.1.5-.2.6-.7.6h-4.2c-.6 0-.8.2-.7.7v.8c0 .4.2.5.6.5h3.6c.6 0 .9.2.8.8v.5c.1.6-.1.8-.7.8-1.2-.1-2.3 0-3.5 0-.5 0-.7.1-.7.7 0 1.5 0 1.5 1.4 1.5h3.5c.5 0 .7.1.7.6 0 1.4 0 1.4-1.4 1.4h-5.7c-.6 0-.9-.1-.8-.8 0-1.6-.1-3-.1-4.5zM11 30.3v4.5c0 .5-.1.6-.6.6-1.8 0-1.7.1-1.8-1.7 0-.8.4-1.9-.2-2.3-.3-.4-1.4-.1-2.1-.1-1.7 0-1.7 0-1.7 1.7v1.1c0 1.3 0 1.3-1.3 1.3-.8 0-1.1-.2-1-1 .1-2.8 0-5.7 0-8.5 0-.6.1-.8.7-.8 1.6 0 1.6 0 1.6 1.6 0 .8-.3 1.8.1 2.3.5.5 1.5.1 2.3.1 1.7 0 1.7 0 1.7-1.7v-.6c0-1.8 0-1.8 1.8-1.7.5 0 .6.2.6.6-.1 1.5-.1 3.1-.1 4.6zM2.7 55.2v-4.5c0-.5.1-.6.6-.6h6.6c.6 0 .7.2.7.7v.7c.1.6-.2.7-.7.7H5.7c-.5 0-.7.1-.7.6 0 1.4 0 1.4 1.3 1.4H9c.6 0 .9.1.8.8 0 1.3 0 1.3-1.3 1.3H5.7c-.5 0-.8.1-.7.7 0 1.4 0 1.4 1.4 1.4H10c.5 0 .6.2.6.6 0 1.5 0 1.5-1.4 1.5H3.4c-.5 0-.6-.1-.6-.6-.1-1.6-.1-3.1-.1-4.7zM50.4 55.2v-4.5c0-.5.1-.6.6-.6 1.7 0 1.7-.1 1.7 1.7 0 .8-.3 1.8.2 2.2.4.4 1.4.1 2.2.1 1.8 0 1.8 0 1.8-1.8v-.8c0-.5-.2-1.2.1-1.4.5-.2 1.2-.1 1.9-.1.4 0 .3.3.3.5v9.3c0 .4-.1.5-.5.5-1.8.1-1.8.1-1.8-1.7v-1.9c0-.5-.2-.6-.6-.6h-2.9c-.6 0-.7.2-.7.8v2.9c0 .4-.1.5-.5.5-1.8.1-1.8.1-1.8-1.7v-3.4zM34.2 28.6v-3c0-.4.1-.6.6-.6 1.8-.1 1.8-.1 1.8 1.7V31c0 1.5.8 2.3 2.1 2.3s2.1-.6 2.2-1.9c.1-1.8.1-3.7.1-5.6 0-.7.1-.9.8-.9 1.5.1 1.5 0 1.5 1.5 0 1.8.2 3.7-.1 5.5-.4 2.5-2.1 3.7-4.9 3.5-2.4-.1-3.9-1.7-4-4.1-.1-.8-.1-1.8-.1-2.7zM23 10.5c.4-.9.7-1.8 1.1-2.6l3-7.2c.3-.4.5-.7 1-.7 1.5 0 1.5 0 2.1 1.4 1.1 2.7 2.3 5.4 3.4 8 .1.3.2.6.4 1h-2c-.4 0-.5-.3-.6-.6-.3-1.5-1.2-2-2.6-1.7h-.2c-1.6-.3-2.7.1-3 1.9-.1.3-.3.5-.6.5h-2zm4.2-4.4h2.1c.4 0 .5-.1.3-.5-.4-.9-.7-1.7-1.2-2.8C28 4 27.6 5 27.2 6.1zM55 35.6c-1.4 0-2.7-.5-3.9-1.3-.4-.3-.4-.5-.1-.8l.1-.1c.9-1.1.9-1.1 2-.4.8.4 1.7.7 2.6.5.5-.1.8-.3.9-.8 0-.5-.3-.8-.7-.9-.9-.3-1.8-.5-2.6-.8-1.7-.6-2.2-1.4-2.1-3 .1-1.4 1-2.4 2.5-2.8 1.6-.4 3.1 0 4.6.8.4.2.4.5.1.8l-.1.1c-.7 1.1-.7 1.1-1.8.5-.6-.3-1.2-.5-1.9-.4-.5.1-.9.3-1 .8-.1.5.3.8.7.9 1 .3 2 .6 3 1 1.4.6 2 1.7 1.7 3.2-.5 1.7-1.9 2.7-4 2.7zM70.8 50.1h3.6c.5 0 .6.1.6.6 0 1.5 0 1.5-1.5 1.5-1.6 0-1.6 0-1.6 1.6v5.9c0 .6-.2.7-.7.7-1.7 0-1.7 0-1.7-1.7v-5.9c0-.5-.1-.7-.6-.6h-1c-1.6 0-1.5 0-1.5-1.6 0-.5.2-.6.6-.6 1.3.1 2.6.1 3.8.1zM23.8 55.3v4.5c0 .6-.2.7-.7.7-1.6 0-1.6 0-1.6-1.6v-8c0-.6.2-.8.8-.8 1.5 0 1.5 0 1.5 1.5v3.7z"/></svg>