<?xml version="1.0" standalone="no"?>
<!DOCTYPE svg PUBLIC "-//W3C//DTD SVG 20010904//EN"
 "http://www.w3.org/TR/2001/REC-SVG-20010904/DTD/svg10.dtd">
<svg version="1.0" xmlns="http://www.w3.org/2000/svg"
 width="820.000000pt" height="820.000000pt" viewBox="0 0 820.000000 820.000000"
 preserveAspectRatio="xMidYMid meet">
<metadata>
Created by potrace 1.11, written by Peter Selinger 2001-2013
</metadata>
<g transform="translate(0.000000,820.000000) scale(0.100000,-0.100000)"
fill="#000000" stroke="none">
<path d="M3890 7637 c-3 -3 -30 -8 -61 -11 -31 -4 -67 -9 -80 -11 -13 -3 -44
-8 -69 -11 -25 -3 -97 -20 -160 -36 -63 -16 -119 -31 -125 -32 -18 -4 -110
-38 -127 -47 -10 -5 -22 -9 -28 -9 -23 0 -227 -101 -325 -160 -33 -20 -71 -43
-84 -51 -32 -18 -39 -23 -156 -117 -199 -159 -366 -342 -523 -573 -29 -42 -52
-82 -52 -88 0 -6 -3 -11 -8 -11 -8 0 -6 4 -88 -162 -62 -124 -125 -283 -139
-348 -4 -19 -10 -39 -13 -45 -7 -12 -9 -18 -17 -65 -4 -19 -10 -51 -15 -70 -5
-19 -12 -57 -16 -85 -3 -27 -8 -59 -10 -70 -28 -142 -16 -522 23 -710 3 -16 7
-39 9 -50 4 -25 12 -62 18 -83 3 -9 7 -28 10 -42 3 -14 10 -41 15 -60 5 -19
14 -51 19 -70 13 -47 57 -172 79 -224 32 -75 144 -291 154 -294 5 -2 9 -8 9
-13 0 -9 74 -123 95 -145 5 -6 24 -28 40 -50 68 -87 101 -123 183 -204 91 -90
209 -189 302 -255 103 -72 95 -46 96 -328 1 -136 4 -250 6 -253 3 -3 23 2 44
9 22 8 59 20 84 28 25 7 50 15 55 18 6 3 15 6 20 7 21 3 292 108 340 131 59
28 101 34 159 21 56 -13 60 -14 146 -28 41 -6 86 -14 100 -16 133 -23 455 -22
618 2 178 26 447 100 577 159 227 101 378 192 560 334 65 51 284 264 330 321
42 53 165 219 165 224 0 3 16 30 35 60 135 211 262 545 301 790 3 21 7 47 9
57 20 102 27 456 11 584 -3 33 -9 76 -11 95 -2 19 -7 46 -10 60 -7 33 -24 108
-30 140 -3 14 -10 36 -15 50 -21 58 -73 236 -72 243 1 4 -2 7 -8 7 -5 0 -10 6
-10 14 0 7 -7 30 -15 50 -8 20 -15 37 -14 38 3 8 -141 283 -179 343 -46 72
-137 197 -182 249 -74 87 -294 295 -323 305 -6 2 -18 11 -27 19 -26 27 -201
137 -290 183 -74 39 -205 101 -220 104 -8 3 -44 16 -65 26 -27 11 -175 60
-197 64 -10 2 -22 6 -26 9 -11 7 -172 45 -242 57 -30 5 -66 12 -80 16 -31 7
-493 17 -500 10z m489 -231 c12 -3 43 -8 67 -10 36 -5 119 -22 189 -40 6 -2
24 -6 40 -10 60 -15 116 -35 240 -87 439 -184 867 -590 1079 -1024 59 -121
107 -242 121 -302 2 -10 12 -47 20 -83 34 -133 40 -174 54 -328 8 -97 6 -286
-4 -371 -3 -31 -8 -74 -11 -96 -2 -22 -6 -51 -9 -65 -3 -14 -7 -41 -10 -60 -5
-30 -16 -80 -31 -142 -2 -10 -6 -28 -9 -40 -3 -12 -14 -52 -25 -88 -176 -555
-545 -966 -1113 -1240 -70 -34 -139 -62 -154 -63 -29 -2 -60 35 -104 123 -12
25 -33 62 -46 83 -13 20 -20 37 -16 37 5 0 3 4 -2 8 -16 11 -145 230 -145 245
0 3 27 38 61 79 84 101 81 98 129 164 24 32 47 61 52 62 4 2 8 8 8 13 0 11 42
72 53 77 4 2 7 7 7 12 0 4 25 48 56 96 68 108 204 379 229 454 0 3 9 22 18 44
9 21 17 42 17 47 0 5 4 17 10 27 14 26 83 250 95 312 2 8 4 15 5 15 1 0 3 8 5
17 2 9 8 40 15 70 6 29 13 62 15 73 23 125 29 163 40 260 3 28 8 66 11 85 3
19 7 116 9 215 3 199 -4 280 -39 420 -79 318 -325 621 -636 783 -74 38 -200
89 -240 97 -3 1 -18 4 -35 8 -111 26 -165 32 -315 31 -227 -1 -421 -55 -625
-173 -33 -19 -62 -37 -65 -40 -3 -3 -31 -26 -63 -49 -54 -41 -144 -126 -192
-183 -116 -137 -223 -358 -265 -543 -21 -93 -23 -253 -24 -1443 0 -965 -3
-1243 -12 -1243 -7 0 -14 4 -16 8 -1 4 -48 48 -103 97 -55 49 -111 101 -124
115 -73 78 -102 112 -151 175 -30 39 -63 79 -72 89 -10 11 -18 23 -18 27 0 4
-18 35 -41 69 -49 74 -149 273 -179 355 -50 140 -91 295 -104 395 -3 25 -8 56
-11 70 -19 93 -19 472 -1 570 3 14 10 52 15 85 6 33 14 71 17 85 3 14 7 37 9
51 9 56 90 279 138 379 82 170 218 375 331 499 55 60 190 192 230 224 21 18
50 43 65 56 44 39 214 149 303 195 111 58 233 108 338 139 74 22 98 28 155 43
26 6 73 15 105 20 19 3 46 7 60 10 14 2 54 6 90 10 36 3 67 7 69 9 5 6 413 -2
440 -9z m-119 -320 c14 -3 41 -9 60 -13 19 -4 37 -8 40 -8 46 -12 67 -19 78
-28 6 -5 12 -7 12 -4 0 9 103 -39 157 -72 42 -27 45 -31 23 -32 -149 -6 -230
-23 -334 -68 -56 -25 -176 -102 -176 -113 0 -18 -33 -5 -82 32 -111 84 -260
138 -408 147 -41 3 -76 6 -77 7 -1 1 28 20 65 42 62 37 203 91 262 100 14 2
48 7 75 12 53 9 263 7 305 -2z m-533 -336 c96 -20 189 -76 281 -168 45 -46 82
-88 82 -95 0 -6 35 27 79 73 149 161 298 219 506 197 94 -10 221 -65 273 -119
31 -31 101 -164 126 -238 64 -195 65 -360 2 -590 -17 -61 -65 -134 -133 -203
-56 -56 -223 -143 -313 -162 -21 -4 -143 -42 -215 -67 -57 -19 -204 -92 -215
-106 -3 -4 -26 -22 -53 -40 -32 -23 -53 -31 -67 -27 -11 3 -20 10 -20 15 0 13
-93 73 -176 113 -65 33 -261 104 -311 113 -72 14 -231 88 -281 133 -13 11 -27
21 -31 23 -3 2 -25 26 -48 53 -72 88 -112 187 -130 320 -7 56 -7 219 0 250 4
20 17 87 19 102 3 24 51 151 77 205 61 129 156 192 331 223 75 12 138 11 217
-5z m-531 -1328 c23 -18 47 -32 53 -32 6 0 11 -4 11 -8 0 -4 12 -13 28 -19 15
-6 61 -26 102 -43 41 -17 83 -33 93 -35 21 -5 173 -50 235 -71 57 -19 159 -71
202 -103 96 -71 97 -76 69 -221 -18 -93 -65 -254 -99 -335 -4 -11 -11 -27 -14
-35 -3 -8 -10 -22 -15 -30 -5 -8 -23 -44 -40 -80 -33 -69 -35 -72 -92 -160
-62 -96 -85 -127 -152 -207 -113 -136 -291 -289 -447 -386 l-60 -37 0 957 0
957 43 -40 c23 -22 61 -55 83 -72z m1845 -89 c-17 -70 -34 -135 -38 -143 -3
-8 -7 -17 -8 -20 -76 -253 -182 -491 -319 -715 -66 -107 -195 -290 -235 -332
-12 -12 -21 -24 -21 -27 0 -25 -319 -341 -447 -442 -146 -116 -180 -140 -304
-217 -96 -59 -292 -167 -304 -167 -3 0 -40 -17 -82 -36 -43 -20 -82 -37 -88
-39 -5 -1 -19 -6 -30 -10 -11 -4 -35 -14 -54 -22 -22 -8 -37 -10 -41 -4 -8 13
-5 214 3 228 3 5 57 40 119 77 62 37 154 97 203 134 82 61 263 232 325 307 97
116 203 273 267 395 67 126 152 350 169 447 2 12 9 34 14 48 5 14 9 29 9 33
-1 4 0 9 1 12 3 8 8 36 14 82 11 77 18 113 29 133 31 64 186 144 387 200 74
21 140 40 145 44 6 3 12 6 15 7 67 20 218 98 240 124 11 13 54 39 58 35 2 -2
-10 -61 -27 -132z m-659 -1703 c35 -64 124 -218 138 -240 5 -8 21 -36 34 -61
l25 -47 -32 -6 c-18 -4 -50 -9 -72 -12 -22 -4 -44 -7 -49 -8 -5 0 -20 15 -32
34 -13 19 -27 40 -31 45 -5 6 -19 30 -32 55 -14 25 -44 77 -67 115 l-43 70 57
57 c31 31 61 56 65 54 5 -1 22 -26 39 -56z m-271 -300 c36 -62 52 -100 45
-103 -29 -11 -336 6 -358 19 -10 7 8 21 132 105 52 35 97 67 98 71 10 23 32
-2 83 -92z"/>
<path d="M3454 6172 c-13 -12 -16 -32 -17 -97 -1 -91 32 -189 77 -227 58 -50
109 -66 217 -67 l67 -1 6 -47 c10 -66 58 -163 103 -204 63 -58 184 -149 198
-149 11 0 51 27 81 55 6 5 33 28 60 50 107 88 127 120 148 235 l12 65 65 2
c117 3 167 20 220 74 48 49 61 93 63 204 1 96 0 100 -24 112 -33 16 -264 10
-305 -9 -56 -25 -86 -51 -113 -97 -33 -56 -32 -54 -37 -177 -4 -125 -10 -166
-31 -207 -16 -31 -26 -42 -107 -114 l-35 -32 -39 28 c-48 35 -88 81 -115 135
-17 33 -21 62 -24 161 -1 66 -7 135 -13 154 -22 72 -80 130 -152 152 -55 17
-288 18 -305 1z"/>
<path d="M4130 1729 c-152 -24 -255 -95 -311 -214 -15 -33 -31 -80 -34 -105
-7 -54 -9 -809 -2 -816 2 -3 40 -5 83 -5 142 -1 133 -3 130 34 -1 17 2 40 6
49 4 9 5 19 1 21 -6 4 -9 153 -4 189 1 4 87 8 191 10 l190 3 1 -50 c0 -27 1
-97 2 -155 l2 -105 103 -1 c86 0 102 2 103 15 1 9 1 196 0 415 -1 485 -5 502
-114 602 -102 93 -223 133 -347 113z m171 -241 c62 -35 73 -70 74 -237 l1
-146 -188 -1 c-162 0 -188 2 -189 16 -4 63 0 242 5 271 13 63 61 104 139 118
59 10 116 3 158 -21z"/>
<path d="M5838 1735 c-2 -2 -21 -5 -43 -8 -66 -9 -87 -15 -150 -46 -83 -41
-142 -90 -200 -166 -27 -34 -85 -148 -90 -176 -2 -10 -6 -23 -9 -27 -3 -5 -8
-31 -12 -58 -45 -313 111 -581 393 -674 67 -22 247 -21 309 2 74 29 129 56
151 77 12 12 26 21 30 21 4 1 27 25 50 54 97 121 138 233 138 375 l0 95 -251
0 -252 1 2 -100 1 -100 129 0 c88 0 131 -4 133 -12 10 -29 -87 -173 -116 -173
-6 0 -11 -4 -11 -8 0 -12 -61 -39 -106 -48 -55 -11 -85 -11 -119 -1 -16 4 -35
9 -42 11 -35 7 -114 72 -149 123 -53 76 -76 140 -79 220 -7 153 65 307 172
370 124 72 265 58 360 -36 26 -26 55 -59 64 -72 15 -22 22 -23 127 -24 l112
-1 -5 25 c-2 13 -9 29 -15 35 -5 5 -10 18 -10 28 0 10 -3 18 -8 18 -4 0 -13
12 -19 28 -40 87 -168 188 -285 223 -57 17 -190 33 -200 24z"/>
<path d="M7599 1736 c-2 -2 -17 -6 -34 -9 -211 -35 -403 -220 -451 -434 -10
-48 -12 -223 -2 -267 5 -22 12 -52 14 -66 10 -52 75 -168 127 -225 95 -105
215 -162 359 -172 81 -5 186 7 227 26 9 5 38 19 65 32 61 29 183 148 215 209
98 187 107 409 25 583 -37 77 -43 86 -115 159 -98 99 -218 153 -348 157 -36 1
-68 4 -72 6 -3 3 -8 3 -10 1z m120 -220 c108 -25 204 -126 245 -261 12 -39 14
-180 3 -221 -42 -160 -195 -279 -342 -267 -46 3 -135 33 -135 45 0 4 -6 8 -13
8 -18 0 -80 67 -110 120 -57 101 -68 243 -26 355 12 33 26 64 30 69 104 134
216 183 348 152z"/>
<path d="M2204 1700 c-18 -5 -19 -18 -20 -390 0 -212 -3 -397 -7 -412 -4 -14
-19 -40 -33 -58 -82 -97 -238 -86 -306 20 -27 42 -31 102 -32 475 l-1 360
-108 3 -107 3 0 -404 c1 -435 3 -454 56 -545 74 -125 205 -193 367 -189 68 2
92 7 142 31 32 16 78 47 100 67 l41 38 40 -36 c62 -56 151 -94 238 -100 71 -5
154 7 181 28 6 4 15 8 20 9 35 8 61 26 117 83 53 53 85 119 105 217 7 35 9
780 2 791 -3 6 -52 8 -109 7 l-104 -3 -1 -385 c-1 -326 -3 -390 -17 -420 -70
-158 -309 -148 -354 15 -4 17 -8 200 -9 407 -1 208 -4 381 -8 385 -9 8 -164
11 -193 3z"/>
<path d="M0 1138 l0 -558 105 0 105 0 1 28 c0 15 1 116 1 224 0 139 3 198 11
201 7 2 76 3 154 2 156 -2 184 -11 205 -63 6 -15 11 -107 12 -207 l2 -180 107
-3 c82 -2 107 0 108 10 2 42 -2 347 -5 368 -6 46 -40 115 -72 147 l-32 32 35
38 c37 39 63 89 69 133 6 47 6 371 0 378 -12 11 -206 9 -207 -2 -1 -6 -3 -78
-4 -161 -1 -82 -3 -165 -4 -182 -1 -21 -12 -45 -30 -65 l-29 -33 -158 0 -159
0 -2 200 c-1 110 -2 213 -2 228 l-1 28 -105 -3 -105 -2 0 -558z"/>
</g>
</svg>
