<svg xmlns="http://www.w3.org/2000/svg" viewBox="0 0 351.4 174.3"><path d="M258.1 95.3c0 .6-.1 1.2-.1 1.8 0 14.7.1 29.3 0 44 0 6.2-1.2 12.2-3.8 17.8-3.5 7.8-9.4 13-17.9 14.7-11.1 2.2-20.5-1.2-28.5-9-4.9-4.7-8.3-10.4-11.7-16.2-7.4-12.8-14.8-25.5-22.2-38.2-2.6-4.6-5.3-9.1-7.9-13.7-.2-.4-.5-.8-1.1-1.7-.1 1.1-.2 1.7-.2 2.2v39.3c0 4.9-.6 9.8-2 14.6-3.4 11.9-11.4 18.7-23.6 20.6-2 .3-4.1.4-6.2.4-13 0-26.1-.1-39.1.1-10.1.1-20-1-29.9-3.2-9.1-2.1-17.7-5.4-25.7-10.1-11.6-6.8-20.5-16.2-26.8-28.1-4.7-9-8.2-18.5-10-28.5-2.3-12.9-2-25.6 1.3-38.3 2.7-10.5 6.7-20.4 12.7-29.5 5.4-8.2 12.4-14.6 20.6-19.8C46.3 8.2 57.6 4.8 69.4 2.7 78.3 1.1 87.2.7 96.2.8c4.3.1 8.5 0 12.8 0h2.3c.5 1.7.6 17.5.2 20.9-.8 0-1.6.1-2.4.1-8.3 0-16.5-.1-24.8 0-9.8.2-19.3 1.6-28.4 5.4-9.4 4-17 10.2-23 18.5-10.1 13.9-14 29.5-12.9 46.5 1.2 17 8.1 31.4 20.2 43.3 6.2 6.1 13.8 9.9 22.2 12.3 7.5 2.2 15.2 3.1 23 3.1 15.5 0 30.9-.1 46.4 0 7.4.1 12.5-4.8 12.7-12.7.1-6.1 0-12.2 0-18.4V35.6c0-.9 0-1.7.1-2.6.2-2 1.3-3.3 2.8-3.6 1.6-.3 2.8.4 3.8 2.1 5.1 8.4 10.1 16.8 15.1 25.3 7.4 12.3 14.7 24.7 22.1 37l28.5 47.7c1.2 2 2.3 4 3.7 5.7 2.6 3.2 6 4.7 10.2 3.6 2.1-.5 3.6-1.7 4.6-3.5 1.4-2.2 2-4.7 2.2-7.3.1-.8.1-1.7.1-2.6V35.3c0-1.1.1-2.1.3-3.2.2-1.4 1.1-2.3 2.5-2.6 1.4-.3 2.5.2 3.5 1.2.5.5.8 1.2 1.2 1.8 8.6 14.4 17.1 28.9 25.7 43.3 9.6 16.1 19.3 32.1 29 48.1 4.2 7 8.3 14 12.4 20.9.7 1.2 1.5 2.3 2.4 3.2 2.8 3 6.3 3.7 10.2 2.5 2.5-.8 4-2.6 5-5 1-2.5 1.4-5.1 1.4-7.7V77.4 3.9 1c1.7-.6 16.8-.7 19.8-.2.1.4.2.9.3 1.3v138.4c0 6-1.1 11.8-3.4 17.3-4.4 10.4-12.4 15.5-23.5 16.2-7.7.4-14.4-2.2-20.3-6.9-4.7-3.8-8.5-8.4-11.6-13.6-10.7-18.4-21.4-36.8-32-55.2-.6-1.1-1.3-2.2-1.9-3.3-.3.3-.4.3-.6.3z"/><path d="M111.6 28.6V49c-.9 0-1.7.1-2.6.1-7.9 0-15.8-.1-23.7 0-6.5.1-12.9 1.2-18.9 3.9-5.9 2.6-10.7 6.6-13.9 12.2-7.7 13.5-8.4 27.3-.9 41.1 3.8 6.9 9.8 11.1 17 13.8 5.9 2.2 12.1 3.3 18.4 3.2h25.4c3-.2 4.9-1.9 5.3-4.9.1-.9.1-1.8.1-2.8V33.1c0-6.3 1.3-12.3 4.1-17.9 2.2-4.4 5.3-7.9 9.5-10.5 8.3-5.1 17-6.6 26.2-2.5 4.2 1.9 7.8 4.8 10.9 8.1 4.1 4.3 7.6 9 10.5 14.2 10.1 18.4 20.4 36.7 30.6 55.1.3.5.6.9 1.3 1.3 0-.7.1-1.5.1-2.2V32.8c0-6.3 1.5-12.3 4.4-17.9 3.3-6.4 8.5-10.6 15.1-13.1C240.9-2 250 .2 258.2 7c5.5 4.5 9.9 10 13.4 16.2 10.5 18.7 20.9 37.4 31.4 56.1.3.6.7 1.2 1.2 1.9.8-.8.5-1.6.5-2.3v-28-47-2.6c1.9-.5 17.3-.6 19.8-.1 0 .7.1 1.5.1 2.2v135.9c0 1.1-.1 2.2-.4 3.2-.7 2.4-3 3-4.8 1.1-.6-.6-1-1.4-1.5-2.1-10.2-17-20.5-34-30.7-51.1-12.3-20.7-24.6-41.4-36.9-62-2-3.4-4.9-5.5-9-5.5-3.9 0-7.5 2.4-9 6.1-.8 1.9-1 4-1 6.1v103.4c0 1.3-.2 2.6-.4 3.8-.3 1.1-.9 2.1-2.2 2.3-1.3.2-2.2-.4-2.9-1.4-.6-.9-1.2-1.7-1.8-2.7-14.4-24-28.8-48-43.1-72-8.1-13.5-15.9-27-23.9-40.3-2-3.3-4.9-5.4-9-5.5-3.8-.1-6.5 1.9-8.3 5-1.1 1.8-1.5 3.8-1.6 5.9V136.5c0 1.1 0 2.1-.2 3.2-.5 2.9-2.3 4.4-5.3 4.5h-.9c-16.1 0-32.2.1-48.3 0-8.3-.1-16.3-1.6-24-4.7-10-3.9-17.5-10.8-23.3-19.6-7.9-12.1-10.7-25.3-9.5-39.5.8-9.2 3.4-17.9 8.2-25.8 3.9-6.4 8.4-12.3 14.8-16.6 5.6-3.7 11.7-6.1 18.2-7.6 5.7-1.3 11.5-1.9 17.4-1.9h23.5c1 .1 1.8.1 2.9.1z"/></svg>