<svg id="Layer_1" xmlns="http://www.w3.org/2000/svg" viewBox="0 0 227.8 42.9"><style>.st0{fill:#030303}.st1{fill:#020202}</style><path class="st0" d="M102.6 11.3V41.1c0 .6 0 .6-.6.6h-4.8c-.5 0-.6 0-.6-.6v-.3V2.4c0-1-.1-.8.8-.8h4.3c.6 0 .9.2 1.2.6l12.9 17.7.6.9c.3-.2.4-.4.5-.7 4.3-6 8.7-12 13-18 .3-.4.6-.5 1.1-.5h4.7c.5 0 .5 0 .5.5V40.8c0 1 .1.8-.8.8h-4.6c-.5 0-.5 0-.5-.5v-.5-28.7-.9c-.3.2-.4.4-.5.6-3.6 4.9-7.2 9.9-10.8 14.8-.3.3-.5.5-.9.5h-3.4c-.5 0-.8-.1-1.1-.5-3.6-4.9-7.2-9.8-10.7-14.7-.1-.2-.3-.4-.4-.5.2 0 .1.1.1.1z"/><path class="st1" d="M169.9 20.9l1.5-2.1c4-5.5 8-11 12-16.6.3-.4.6-.6 1.2-.6h4.7c.5 0 .5 0 .5.5V40.8c0 1 .1.8-.8.8h-4.6c-.4 0-.5-.1-.5-.5v-.5-28.8-.8c-.3.1-.4.3-.5.5-3.6 4.9-7.2 9.8-10.7 14.8-.3.4-.6.6-1.1.6h-3.3c-.5 0-.7-.1-1-.5-3.3-4.5-6.6-9.1-9.9-13.6-.4-.6-.9-1.2-1.3-1.8-.2.3-.1.5-.1.7v29c0 1 .1.8-.8.8h-4.6c-.5 0-.5 0-.5-.5v-.3V2.3c0-1-.1-.8.8-.8h4.5c.5 0 .7.1 1 .5 4.4 6 8.7 12 13.1 18 0 .4.2.6.4.9zM64.9 42.2c-7.1-.2-12.7-3.4-16.5-9.4-5.8-9.1-3.7-21.1 4.8-27.6 2.8-2.2 6-3.6 9.5-4C68 .6 72.8 2 77 5.4c4.2 3.4 6.8 7.9 7.6 13.3 1.5 9.8-4.4 19.4-13.7 22.6-2 .6-3.8.9-6 .9zm13.8-20.6c-.1-3.8-1.1-6.8-3-9.3C71 6 62.4 4.9 56.5 9.8c-3.1 2.6-4.8 5.9-5.3 9.9-.5 4.5.6 8.6 3.6 12.1 5.4 6.5 15.2 6.4 20.5-.3 2.4-3 3.4-6.4 3.4-9.9zM29.4 11c-.3-.1-.4-.3-.6-.5-1.9-1.7-3.9-3.1-6.4-3.6-3.6-.8-7-.1-10 2.1-3.5 2.5-5.6 6-6.2 10.3-.8 5.1.6 9.6 4.2 13.4 2.6 2.7 5.8 4.1 9.6 4.1 3.1 0 5.8-1.2 8.2-3.2.9-.7 1.7-1.6 2.4-2.6 1.4 1.3 2.7 2.6 4.1 3.9-.4.6-.9 1-1.4 1.5-2.6 2.5-5.6 4.4-9.2 5.3-5.3 1.3-10.2.4-14.7-2.5-5-3.3-8-7.9-9-13.8-1.2-7 .7-13.1 5.6-18.2 4.2-4.4 9.4-6.3 15.4-5.9 3.2.2 6.1 1.5 8.8 3.2.8.5 1.6 1.2 2.4 1.8.2.2.3.3.1.6-1.1 1.3-2.1 2.7-3.1 4-.1 0-.2.1-.2.1z"/><path class="st0" d="M200.3 1.9c1.1-.6 2.1-1.3 3.2-1.9l24.3 41.1-3 1.8c-.2.1-.3 0-.3-.1-.1-.1-.1-.2-.2-.4-7.9-13.3-15.7-26.6-23.6-39.9-.2-.1-.3-.3-.4-.6z"/></svg>