<svg id="Layer_1" xmlns="http://www.w3.org/2000/svg" viewBox="0 0 205.1 177.1"><style>.st0{fill:#fff}</style><path d="M107 0c2 .3 3.9.5 5.9.9 23.9 5.2 39.5 19.5 45.8 43 7 26.3-5.9 53.7-30.2 65.9-12.9 6.4-26.4 7.7-40.4 4.4-.6-.2-1.4-.1-2 .2-4.8 2.2-9.7 3.9-14.9 5.4V108c0-.9-.3-1.3-1-1.8-11.7-8-19.9-18.7-23.5-32.5-5.5-20.9-1-39.6 13.7-55.5C70.3 7.5 82.7 1.6 97.2.2c.2 0 .4-.1.6-.2h9.2zM70.9 100.1c.1-.1.2-.1.3-.2V39c0-3.4.5-6.7 1.7-10C81 6.5 109.8.7 125.8 18.5c4.1 4.5 6.8 9.9 7.6 16 .8 5.9.3 11.7-.6 17.6-2.4 15.9-9 29.8-19.5 41.9-.5.5-.6.9-.2 1.5 2.2 3.6 4.3 7.3 6.3 11 .5.8.9 1 1.8.6 20.3-8.6 31.9-23.8 33.6-45.8 1.3-16.5-4.7-30.7-16.8-41.9C126.2 8.5 112.1 4 96.1 5.9c-12.3 1.4-22.8 6.7-31.3 15.6-11.6 12.1-16.4 26.7-14.4 43.4 1.4 11.5 6.4 21.4 14.4 29.7 1.9 1.9 4.1 3.6 6.1 5.5zm31.5-38.9c4.5-3.4 5.8-4.1 11.4-5.7 1.8-.5 3.7-1.1 5.4-1.8 4.2-1.7 6.9-4.7 8.1-9 1.8-6.8.8-13.1-3-19.1-.3-.4-.7-.8-1.1-1.1-6-4.2-14.3-3.2-19 2.5-.6.7-1.1 1.3-1.7 2-.7-.8-1.3-1.6-1.9-2.3-3.8-4.1-8.4-5.6-13.8-4.4-3.2.7-5.9 2.1-7.3 5.3-2.1 4.5-3.1 9.2-2.4 14.2.8 6.1 4 10.3 9.9 12.3 1.2.4 2.3.8 3.5 1.1 4.3 1.3 8.6 2.8 11.9 6zm24.5-7.1c-1.1.8-2 1.5-2.9 2.1-3.1 1.9-6.5 2.9-10 3.8-2.8.8-5.5 1.8-7.8 3.8-.4.4-.8 1-.9 1.6-1.2 10.1-5 19.1-11.4 27-4.5 5.6-10 10.1-16.4 13.4-.3.2-.8.6-.8.9-.1 1.8 0 3.7 0 5.7 12.1-4.3 22.4-11.1 31-20.4 9.9-10.9 16.3-23.4 19.2-37.9zm-50.1-1.5v47.9c.5-.3.8-.4 1.1-.6 3.8-2.3 7.2-5.1 10.2-8.3 6.5-7.1 10.6-15.4 12.1-25 .2-1-.1-1.7-.9-2.4-2.5-2.1-5.3-3.4-8.4-4.2-5.2-1.4-10.3-2.9-14.1-7.4zm39.7-34.8c-8.5-6.1-21.3-5.2-27.8 0 5.3-.2 9.9 1.4 13.8 4.9 3.9-3.5 8.5-5 14-4.9zm-10.9 83.8c1.5 2.6 3 5.2 4.5 7.7.1.2.6.5.8.4 1.2-.2 2.4-.4 3.7-.7-2-3.5-4-6.9-5.9-10.3-1.1 1.1-2.1 2-3.1 2.9zm-11.1 8.3c3.3.5 6.5.8 9.8.5-1.1-1.9-2-3.5-3-5.2-2.2 1.6-4.4 3-6.8 4.7zm110.6 54.3c-.3 1.2-.5 2.4-.9 3.6-2.1 6.2-7.8 9.9-14 9.3-6.5-.6-11.5-5.5-12.4-12.1-.7-5.2.5-10 4.4-13.6 7.8-7.2 20.1-3.2 22.5 7.2.2.7.3 1.5.5 2.2-.1 1.1-.1 2.2-.1 3.4zm-5.5-1.6c0-2.7-.8-4.9-2.4-6.8-2.8-3.4-7.4-3.8-10.8-1.1-4 3.2-4.7 9.9-1.4 14.1 3.4 4.3 9.3 4.3 12.6-.2 1.4-1.8 2.1-3.9 2-6zm-129.9-14h5.4v18.2c0 4.5-2.3 8.1-6.2 9.6-4 1.6-8.2.6-11.3-2.6l-.2-.2c-2.8 3.2-6.4 4.2-10.5 3.1s-7-4.8-7.1-9c-.1-6.2 0-12.4 0-18.6 0-.2 0-.3.1-.5h5.3v17.9c0 3.2 1.9 5.3 4.7 5.3 2.5 0 4.7-1.7 4.7-4.3.1-5.4.1-10.8.1-16.2v-2.8h5.4v18.3c0 3.5 2.9 5.7 6.2 4.7 2.1-.6 3.4-2.4 3.4-4.8v-18.1zm84.8 17.4h-6.9v-5h12.7c.6 6.3-2.4 13.2-8.9 15.4-6.6 2.2-13.5-.7-16.6-7-3.6-7.3-1-16.3 5.8-20.1 5.7-3.2 15.6-2 18.8 7.2.1.2.1.4.2.7h-5.3c-.2 0-.5-.2-.6-.4-1.9-3.1-4.6-4.6-8.2-3.9-3.5.7-5.4 3.2-6.4 6.5-1.1 3.8-.4 7.3 2.3 10.3 2.1 2.3 4.7 3 7.6 2.2 2.8-.9 4.6-2.9 5.5-5.9zm-39.7 10.5h-5.2v-7.7H100v7.6h-5.4c0-.3-.1-.7-.1-1V158c0-4.2 1.7-7.6 5.7-9.3 4-1.7 8-1.3 11.5 1.6 1.9 1.6 3 3.7 3.1 6.1.1 6.6.1 13.2.1 19.8 0 .1-.1.2-.1.3zm-5.4-13c0-2.4.2-4.6 0-6.8-.2-2.3-2-3.5-4.4-3.5-2.7 0-4.6 1.1-4.9 3.4-.3 2.3-.1 4.6-.1 6.9h9.4zM5.3 148.6V160c2.4 0 4.6.1 6.9 0 1.8-.1 2.6-1.2 2.7-3.1v-8.2h5.4v7.7c0 2.5-.6 4.7-2.9 6.2 2.2 1.5 2.9 3.7 2.9 6.2v7.8h-5.4V170c0-4.3-.5-4.8-4.8-4.8H5.3v11.4H0v-27.9c1.7-.1 3.4-.1 5.3-.1z"/><path class="st0" d="M110.2 46.3h3c2.8-.1 5-1.8 5.6-4.5.3-1.5.2-3 .2-4.5 0-.3-.7-.8-1-.8-1.7-.1-3.4-.1-5.2 0-3.3.1-5.7 2.6-5.8 5.9 0 1 .1 2 0 3-.1 1.7-.3 3.4-1.5 4.7-.9.9-1.9 1.7-2.8 2.5-3-1.8-4.8-4.2-4.6-7.7 0-.7.1-1.4.1-2.2-.1-3.7-2.6-6.1-6.2-6.2h-4.6c-.9 0-1.3.4-1.3 1.3 0 1.1 0 2.2.1 3.4.3 3.1 2.6 5.1 5.7 5.3H95c.3 2.3.8 4.4 2.3 5.9 1.4 1.4 3.1 2.5 4.6 3.8.5.5 1 .4 1.5 0 1.3-1.1 2.6-2.1 3.9-3.2 1.4-1.1 2.2-2.5 2.5-4.2 0-.9.2-1.6.4-2.5z"/><path d="M110.2 46.3c-.2.8-.3 1.6-.5 2.2-.4 1.7-1.2 3.1-2.5 4.2s-2.6 2.1-3.9 3.2c-.5.4-.9.5-1.5 0-1.5-1.3-3.1-2.5-4.6-3.8-1.6-1.5-2-3.6-2.3-5.9h-3.1c-3.1-.1-5.4-2.2-5.7-5.3-.2-.9-.1-2.1-.1-3.2 0-.9.3-1.3 1.3-1.3 1.5.1 3 0 4.6 0 3.7 0 6.2 2.5 6.2 6.2 0 .7 0 1.4-.1 2.2-.2 3.6 1.7 5.9 4.6 7.7.9-.8 1.9-1.6 2.8-2.5 1.3-1.3 1.4-3 1.5-4.7.1-1 0-2 0-3 .1-3.3 2.5-5.8 5.8-5.9 1.7-.1 3.4-.1 5.2 0 .4 0 1 .5 1 .8 0 1.5.1 3.1-.2 4.5-.6 2.7-2.8 4.4-5.6 4.5-.9.1-1.9.1-2.9.1z"/></svg>