<svg id="Layer_1" xmlns="http://www.w3.org/2000/svg" viewBox="0 0 157.8 40.7"><style>.st0{fill:#0b0b0b}</style><path class="st0" d="M78 17c-4.7-3.8-5.9-7.6-3.8-11.6C76.5 1 81.9-1.2 86.9.6c2.9 1.1 5.6 1 8.5.5.8-.1 2-.8 2.1.5.1 1-.5 2.3-2 2.3-1 0-2.1-.1-3.2-.1 2.1 6.9 1.2 10.1-3.3 13-2.4 1.5-4.9 1.9-7.6 1.4-2-.4-3.3.4-3.5 2.1-.2 1.7 1.5 2.2 3 2.3 2.5.1 4.9 0 7.4.1 2.5 0 4.9.6 7 2.1 3 2.1 3.6 4.6 1.8 7.8-3.5 6.3-13.2 9.9-20 7.3-2.6-1-4.8-2.6-5.3-5.7-.4-3 1.9-4.3 3.8-5.8.6-.5 1.3-.8 2.1-1.4-1.9-1.4-4.6-2.4-4.4-5.1.2-2.6 3.3-3.1 4.7-4.9zm6.3 10.1h-1.8c-2.9.1-5.7 2.1-6 4.2-.3 2.5 1.6 5.3 4.4 6.3 4.2 1.4 8 .5 11.3-2.5 2.7-2.5 2.2-5.3-1.1-7-2.2-1.1-4.5-1-6.8-1zM78 9c-.1 1.7.4 3.3 1.2 4.8 1 1.8 2.6 2.9 4.7 2.9 2.2-.1 3.5-1.4 4.3-3.4 1.3-3.1 1-6.1-.7-8.8C85.4.9 81 1.1 79 4.8 78.3 6 78 7.4 78 9zM15.7 19.6c1.7-4.3 3.3-8 4.6-11.8.7-1.9-.7-4.5-2.8-5.3-.7-.3-1.5-.2-1.3-1.2.2-1 1.1-.6 1.8-.6h8.7c.6 0 1.5-.5 1.7.6.2 1-.5 1-1.3 1.2-1.8.4-2.1 1.5-1.5 3.1 1.7 4.3 3.3 8.7 5.1 13.3 1.5-1.4 1.7-3.2 2.3-4.7 1.1-2.7 2.1-5.4 3.2-8.1.8-2 .3-3.3-1.9-3.6-.7-.1-1.6 0-1.5-1 .1-1.3 1.1-.8 1.8-.8 2.6.2 5.3.2 7.9 0 .6 0 1.3-.3 1.4.7.1.7-.4 1.1-1.1 1.1-2.3.3-3.3 2-4 4-2.4 6.3-5 12.6-7.6 18.8-.4.9-.5 2.1-1.7 2.1-1.3 0-1.2-1.4-1.5-2.2-2-5-3.8-9.9-6-15.5-2.1 5.2-3.9 9.9-5.8 14.6l-.6 1.5c-.3.7-.7 1.5-1.6 1.6-1.1.1-1.1-1-1.3-1.7-2.8-6.7-5.6-13.3-8.4-20C3.6 4.1 3.1 2.4.8 2.4c-.7 0-.9-.5-.8-1.1C.1.8.5.6 1 .7c3.4.3 6.9.3 10.3 0 .6 0 1.1.1 1.1.8 0 .6-.3.9-1 1-2.7.1-2.3 1.6-1.5 3.4 1.9 4.3 3.7 8.7 5.8 13.7zM69.7 23.5c-.9 2.5-2.9 3.2-4.8 3.6-1.7.4-2.8-1-3.4-2.4-.6-1.4-1.1-1.1-2.1-.4-1 .7-2 1.4-3.1 1.9-3.7 2-7.8.6-9.5-3.2-1.7-3.7-.1-6.9 4.1-8.4 2.5-.9 4.9-1.9 7.5-2.6 1.9-.5 2.4-1.6 2.3-3.5-.1-2.3-.9-4.1-2.8-5.4-2.4-1.6-4.7-.8-5.6 1.9-.2 1-.3 1.8-.6 2.5-.4 1.1-1.3 1.7-2.4 1.7-.9 0-1.5-.5-1.8-1.3-.4-1-.5-2.2.4-2.9C51.1 2.3 54.6.1 59 .3c3.5.1 6.3 3.7 6.4 8.1.1 4 0 7.9 0 11.9 0 3.6.5 4 4.3 3.2zm-9.1-5.7v-3.4c0-.6-.1-1.1-.9-.9-2.5.8-5.2 1-7.2 3-1.5 1.5-1.8 3.4-.7 5.3s2.8 2.5 5 1.9c3.6-1 3.8-1.4 3.8-5.9zM122.4 20.4c-.4 3.5-4.5 6.7-8.6 6.9-8.6.4-14.6-7.6-12.3-16.4 1.8-6.8 7.7-11.4 13.4-10.6 4.1.6 7.2 4 7.3 8.1.1 2-.6 3.1-2.9 3.1-4 0-7.9.3-11.9.2-1.9 0-2.2.7-2 2.3.4 3.9 2.1 6.9 5.7 8.5 3.5 1.6 6.9 1.1 9.8-1.4.3-.2.6-.4.8-.6.3-.1.4-.1.7-.1zm-11-11h3.4c2.2.1 2.6-1 2-2.8-.7-2.1-1.7-3.9-4.2-4.2-2.5-.3-4.2.9-5.4 3-.6 1.1-1.8 2.4-1.2 3.6.5.9 2.1.3 3.2.4h2.2zM134.3 26.9h-6.1c-.6 0-1.3.1-1.4-.7-.1-.8.5-1 1.2-1 2.7.1 3.1-1.5 3.1-3.7-.1-4.7 0-9.3 0-14 0-1.8-.6-3-2.6-3.2-.7-.1-1.9.3-1.8-1 .1-1.1 1.2-.7 1.9-1 1.8-.5 3.6-.8 5.3-1.6 2.1-1 2.4-.4 2.3 1.6 0 1.1-1.4 2.6-.3 3.1 1.3.6 1.6-1.5 2.4-2.2 1.7-1.6 3.2-3.3 5.9-2.9 2.6.5 3.8 2.6 2.7 4.9-.7 1.4-1.5 2-3.1 1-4.1-2.3-7.8-.1-7.9 4.8-.1 3.4.1 6.9 0 10.3-.1 2.7 1 3.8 3.6 3.8.7 0 2.1-.5 2.1.9 0 1.7-1.4.8-2.2.8-1.7.1-3.4.1-5.1.1zM157.8 24.3c-.3 1.7-1.2 3.1-3.3 3.1-2.1 0-3.3-1.2-3.4-3.3-.1-2.1 1.2-3.2 3.3-3.3 1.9-.1 3.4 1.4 3.4 3.5z"/></svg>